<svg width="20" height="20" viewBox="0 0 20 20" fill="none" xmlns="http://www.w3.org/2000/svg">
<path d="M10.001 0C15.5238 0 20.001 4.47715 20.001 10C20.001 15.5228 15.5238 20 10.001 20C8.1671 20 6.44851 19.5064 4.97086 18.6447L0.00515676 20L1.35712 15.0315C0.494937 13.5536 0.000976562 11.8345 0.000976562 10C0.000976562 4.47715 4.47813 0 10.001 0ZM6.39232 5.30833C6.26293 5.31742 6.13607 5.34902 6.02057 5.40811C5.93392 5.45244 5.85348 5.51651 5.72709 5.63586C5.60774 5.74855 5.53857 5.84697 5.46569 5.94186C5.09599 6.4232 4.89729 7.01405 4.90098 7.62098C4.90299 8.1116 5.03043 8.5884 5.23169 9.0336C5.63982 9.9364 6.31288 10.8908 7.20194 11.7759C7.4155 11.9885 7.62473 12.2034 7.85034 12.402C8.9538 13.3736 10.2688 14.0742 11.6907 14.4482C11.6907 14.4482 12.2507 14.5342 12.2589 14.5347C12.4444 14.5447 12.6296 14.5313 12.8153 14.5218C13.1066 14.5068 13.391 14.428 13.6484 14.2909C13.8139 14.2028 13.8922 14.159 14.0311 14.0714C14.0311 14.0714 14.0737 14.0426 14.1559 13.9814C14.2909 13.8808 14.3743 13.81 14.4866 13.6934C14.5694 13.6074 14.6406 13.5058 14.6956 13.3913C14.7738 13.2281 14.8525 12.9166 14.8838 12.6579C14.9077 12.4603 14.9005 12.3523 14.8979 12.2854C14.8936 12.1778 14.8047 12.0671 14.7073 12.0201L14.1258 11.7587C14.1258 11.7587 13.2563 11.3803 12.7245 11.1377C12.6691 11.1124 12.6085 11.1007 12.5476 11.097C12.4142 11.0888 12.2647 11.1236 12.1696 11.2238C12.1646 11.2218 12.0984 11.279 11.3749 12.1555C11.335 12.2032 11.2415 12.3069 11.0798 12.2972C11.0554 12.2955 11.0311 12.292 11.0074 12.2858C10.9419 12.2685 10.8781 12.2457 10.8157 12.2193C10.692 12.1668 10.6486 12.1469 10.5641 12.1105C9.9868 11.8583 9.457 11.5209 8.9887 11.108C8.8631 10.9974 8.7463 10.8783 8.6259 10.7616C8.2057 10.3543 7.86169 9.9211 7.60577 9.4938C7.5918 9.4705 7.57027 9.4368 7.54708 9.3991C7.50521 9.331 7.45903 9.25 7.44455 9.1944C7.40738 9.0473 7.50599 8.9291 7.50599 8.9291C7.50599 8.9291 7.74939 8.663 7.86248 8.5183C7.97128 8.379 8.0652 8.2428 8.125 8.1457C8.2428 7.95633 8.2801 7.76062 8.2182 7.60963C7.93764 6.92565 7.64818 6.24536 7.34986 5.56894C7.29098 5.43545 7.11585 5.33846 6.95659 5.32007C6.90265 5.31384 6.84875 5.30758 6.79459 5.30402C6.66053 5.29748 6.5262 5.29892 6.39232 5.30833Z" fill="#F4F2F0"/>
</svg>
